<svg t="1611324778244" class="icon" viewBox="0 0 1024 1024" version="1.1" xmlns="http://www.w3.org/2000/svg" p-id="26127" width="200" height="200"><path d="M149.973333 89.6l814.592 814.592-60.373333 60.373333-85.930667-85.973333A255.36 255.36 0 0 1 725.333333 896H298.666667A256 256 0 0 1 213.674667 398.464a298.325333 298.325333 0 0 1 15.061333-109.354667L89.6 149.930667 149.973333 89.6zM298.666667 384c0 3.456 0.085333 6.954667 0.256 10.368l2.986666 63.488-59.904 21.077333A170.752 170.752 0 0 0 298.666667 810.666667h426.666666c7.936 0 15.744-0.554667 23.381334-1.578667L299.946667 360.32C299.093333 368.085333 298.666667 375.978667 298.666667 384z m213.333333-298.666667a298.666667 298.666667 0 0 1 298.325333 313.130667 256.128 256.128 0 0 1 137.045334 369.066667l-63.701334-63.701334a170.624 170.624 0 0 0-222.165333-222.122666L597.76 417.92A255.658667 255.658667 0 0 1 725.333333 384a213.333333 213.333333 0 0 0-336.042666-174.506667l-61.013334-61.013333A297.386667 297.386667 0 0 1 512 85.333333z" p-id="26128"></path></svg>