<svg t="1611324681283" class="icon" viewBox="0 0 1024 1024" version="1.1" xmlns="http://www.w3.org/2000/svg" p-id="25855" width="200" height="200"><path d="M725.333333 896H298.666667A256 256 0 0 1 213.674667 398.464a298.666667 298.666667 0 1 1 596.650666 0A256 256 0 0 1 725.333333 896z m0-512a213.333333 213.333333 0 1 0-426.410666 10.368l2.986666 63.488-59.904 21.077333A170.752 170.752 0 0 0 298.666667 810.666667h426.666666a170.666667 170.666667 0 1 0-161.962666-224.64l-80.981334-27.008A256.128 256.128 0 0 1 725.333333 384z" p-id="25856"></path></svg>