<svg t="1611324829493" class="icon" viewBox="0 0 1024 1024" version="1.1" xmlns="http://www.w3.org/2000/svg" p-id="26263" width="200" height="200"><path d="M149.973333 89.6l814.592 814.592-60.373333 60.373333-85.930667-85.973333A255.36 255.36 0 0 1 725.333333 896H298.666667A256 256 0 0 1 213.674667 398.464a298.325333 298.325333 0 0 1 15.061333-109.354667L89.6 149.930667 149.973333 89.6zM725.333333 384a256.128 256.128 0 0 1 222.037334 383.530667L597.76 417.962667C635.306667 396.373333 678.826667 384 725.333333 384z m-213.333333-298.666667a298.794667 298.794667 0 0 1 288.64 221.653334 342.485333 342.485333 0 0 0-264.789333 49.066666L328.277333 148.48A297.386667 297.386667 0 0 1 512 85.333333z" p-id="26264"></path></svg>