<svg t="1611389224036" class="icon" viewBox="0 0 1024 1024" version="1.1" xmlns="http://www.w3.org/2000/svg" p-id="27803" width="200" height="200"><path d="M512 128c230.058667 0 421.461333 165.546667 461.610667 384-40.106667 218.453333-231.552 384-461.610667 384-230.058667 0-421.461333-165.546667-461.610667-384C90.496 293.546667 281.941333 128 512 128z m0 682.666667a384.213333 384.213333 0 0 0 374.485333-298.666667 384.213333 384.213333 0 0 0-748.970666 0A384.213333 384.213333 0 0 0 512 810.666667z m0-106.666667a192 192 0 1 1 0-384 192 192 0 0 1 0 384z m0-85.333333a106.666667 106.666667 0 1 0 0-213.333334 106.666667 106.666667 0 0 0 0 213.333334z" p-id="27804"></path></svg>