<svg t="1611323652421" class="icon" viewBox="0 0 1024 1024" version="1.1" xmlns="http://www.w3.org/2000/svg" p-id="4210" width="200" height="200"><path d="M512 42.666667c-25.6 0-42.666667 17.066667-42.666667 42.666666v170.666667c0 25.6 17.066667 42.666667 42.666667 42.666667s42.666667-17.066667 42.666667-42.666667V85.333333c0-25.6-17.066667-42.666667-42.666667-42.666666zM512 725.333333c-25.6 0-42.666667 17.066667-42.666667 42.666667v170.666667c0 25.6 17.066667 42.666667 42.666667 42.666666s42.666667-17.066667 42.666667-42.666666v-170.666667c0-25.6-17.066667-42.666667-42.666667-42.666667zM238.933333 179.2c-17.066667-17.066667-42.666667-17.066667-59.733333 0s-17.066667 42.666667 0 59.733333L298.666667 358.4c8.533333 8.533333 21.333333 12.8 29.866666 12.8s21.333333-4.266667 29.866667-12.8c17.066667-17.066667 17.066667-42.666667 0-59.733333L238.933333 179.2zM721.066667 661.333333c-17.066667-17.066667-42.666667-17.066667-59.733334 0s-17.066667 42.666667 0 59.733334l119.466667 119.466666c8.533333 8.533333 21.333333 12.8 29.866667 12.8s21.333333-4.266667 29.866666-12.8c17.066667-17.066667 17.066667-42.666667 0-59.733333l-119.466666-119.466667zM298.666667 512c0-25.6-17.066667-42.666667-42.666667-42.666667H85.333333c-25.6 0-42.666667 17.066667-42.666666 42.666667s17.066667 42.666667 42.666666 42.666667h170.666667c25.6 0 42.666667-17.066667 42.666667-42.666667zM938.666667 469.333333h-170.666667c-25.6 0-42.666667 17.066667-42.666667 42.666667s17.066667 42.666667 42.666667 42.666667h170.666667c25.6 0 42.666667-17.066667 42.666666-42.666667s-17.066667-42.666667-42.666666-42.666667zM302.933333 661.333333l-119.466666 119.466667c-17.066667 17.066667-17.066667 42.666667 0 59.733333 8.533333 8.533333 21.333333 12.8 29.866666 12.8s21.333333-4.266667 29.866667-12.8l119.466667-119.466666c17.066667-17.066667 17.066667-42.666667 0-59.733334s-46.933333-17.066667-59.733334 0zM691.2 375.466667c12.8 0 21.333333-4.266667 29.866667-12.8l119.466666-119.466667c17.066667-17.066667 17.066667-42.666667 0-59.733333s-42.666667-17.066667-59.733333 0l-119.466667 119.466666c-17.066667 17.066667-17.066667 42.666667 0 59.733334 8.533333 8.533333 21.333333 12.8 29.866667 12.8z" p-id="4211"></path></svg>